<svg width="0" height="0" class="hidden">
 <!-- Eye -->
  <symbol fill="none" xmlns="http://www.w3.org/2000/svg" viewBox="0 0 24 24" id="eye">
    <path d="M15.58 12C15.58 13.98 13.98 15.58 12 15.58C10.02 15.58 8.42001 13.98 8.42001 12C8.42001 10.02 10.02 8.42 12 8.42C13.98 8.42 15.58 10.02 15.58 12Z" stroke="#333333" stroke-width="1.5" stroke-linecap="round" stroke-linejoin="round"></path>
    <path d="M12 20.27C15.53 20.27 18.82 18.19 21.11 14.59C22.01 13.18 22.01 10.81 21.11 9.4C18.82 5.8 15.53 3.72 12 3.72C8.47 3.72 5.18 5.8 2.89 9.4C1.99 10.81 1.99 13.18 2.89 14.59C5.18 18.19 8.47 20.27 12 20.27Z" stroke="#333333" stroke-width="1.5" stroke-linecap="round" stroke-linejoin="round"></path>
  </symbol>

  <symbol fill="none" xmlns="http://www.w3.org/2000/svg" viewBox="0 0 24 24" id="magic-star">
    <path d="M17.29 4.14002L17.22 7.93C17.21 8.45 17.54 9.14002 17.96 9.45002L20.44 11.33C22.03 12.53 21.77 14 19.87 14.6L16.64 15.61C16.1 15.78 15.53 16.37 15.39 16.92L14.62 19.86C14.01 22.18 12.49 22.41 11.23 20.37L9.46999 17.52C9.14999 17 8.39 16.61 7.79 16.64L4.45003 16.81C2.06003 16.93 1.38002 15.55 2.94002 13.73L4.92 11.43C5.29 11 5.46 10.2 5.29 9.66001L4.28005 6.43C3.69005 4.53 4.75004 3.48002 6.64004 4.10002L9.59005 5.07002C10.09 5.23002 10.84 5.12001 11.26 4.81001L14.34 2.59001C16 1.39001 17.33 2.09002 17.29 4.14002Z" stroke="#FF951D" stroke-width="1.5" stroke-linecap="round" stroke-linejoin="round"></path>
    <path opacity="0.4" d="M21.91 22L18.88 18.97" stroke="#FF951D" stroke-width="1.5" stroke-linecap="round" stroke-linejoin="round"></path>
  </symbol>

  <symbol  xmlns="http://www.w3.org/2000/svg" viewBox="0 0 22 22" id="share">
    <path d="M20.9902 16.6236V16.6185C20.8226 14.3601 18.7462 12.6542 16.3508 12.8096C15.026 12.8936 13.8851 13.5301 13.1497 14.4594L9.53766 12.7943C9.67014 12.3513 9.72692 11.8904 9.69177 11.4219C9.65933 10.9458 9.53226 10.4926 9.343 10.075L12.6793 7.97196C13.539 8.7969 14.7638 9.28066 16.0858 9.19409C17.2376 9.12025 18.3082 8.61612 19.0707 7.79628C20.6469 6.09039 20.463 3.501 18.6516 2.01408C17.781 1.29608 16.6455 0.939625 15.4883 1.00837C13.0902 1.16877 11.2788 3.12163 11.4437 5.38003C11.4816 5.8587 11.6032 6.30936 11.7925 6.72692L8.46162 8.83C7.60187 8.00506 6.37983 7.5213 5.06046 7.60787C2.65693 7.76318 0.845503 9.71604 1.01042 11.9744C1.16723 14.2328 3.24903 15.9413 5.64714 15.7885C6.79889 15.7147 7.86953 15.2156 8.63195 14.3958C8.70224 14.3118 8.77254 14.2277 8.84013 14.1412L12.4522 15.8012C12.3251 16.2417 12.2683 16.7025 12.2981 17.1812C12.463 19.4396 14.5367 21.1455 16.9402 20.9902C19.3383 20.8349 21.1497 18.882 20.9902 16.6236ZM15.6046 2.50039C16.3346 2.45456 17.0564 2.68371 17.6107 3.13691C18.1649 3.59521 18.5029 4.23683 18.5516 4.92173C18.657 6.35773 17.5053 7.60278 15.9804 7.70207C14.4583 7.80137 13.1389 6.71673 13.0335 5.28073C12.928 3.84473 14.0798 2.59968 15.6046 2.50039ZM5.54441 14.2965C4.01956 14.3958 2.70019 13.3111 2.59475 11.8802C2.48931 10.4417 3.63294 9.19918 5.16049 9.09988C5.89317 9.04896 6.61775 9.27811 7.16658 9.73641C7.72083 10.1896 8.05878 10.8312 8.11285 11.5161C8.21829 12.9547 7.06655 14.1972 5.54441 14.2965ZM16.8293 19.4982C15.3099 19.5975 13.9878 18.5128 13.8824 17.0768C13.7769 15.6434 14.9287 14.4009 16.4535 14.3016C17.9811 14.2074 19.3005 15.2869 19.4059 16.7229C19.5059 18.1615 18.3569 19.404 16.8293 19.4982Z" ></path>
  </symbol>

  <symbol fill="none" xmlns="http://www.w3.org/2000/svg" viewBox="0 0 24 24" id="document-download">
    <path d="M9 11V17L11 15" stroke="#333333" stroke-width="1.5" stroke-linecap="round" stroke-linejoin="round"></path>
    <path d="M9 17L7 15" stroke="#333333" stroke-width="1.5" stroke-linecap="round" stroke-linejoin="round"></path>
    <path d="M22 10V15C22 20 20 22 15 22H9C4 22 2 20 2 15V9C2 4 4 2 9 2H14" stroke="#333333" stroke-width="1.5" stroke-linecap="round" stroke-linejoin="round"></path>
    <path d="M22 10H18C15 10 14 9 14 6V2L22 10Z" stroke="#333333" stroke-width="1.5" stroke-linecap="round" stroke-linejoin="round"></path>
  </symbol>

  <symbol  xmlns="http://www.w3.org/2000/svg" viewBox="0 0 22 20" id="heart">
    <path d="M11.62 18.81C11.28 18.93 10.72 18.93 10.38 18.81C7.48 17.82 1 13.69 1 6.69001C1 3.60001 3.49 1.10001 6.56 1.10001C8.38 1.10001 9.99 1.98001 11 3.34001C12.01 1.98001 13.63 1.10001 15.44 1.10001C18.51 1.10001 21 3.60001 21 6.69001C21 13.69 14.52 17.82 11.62 18.81Z" stroke="#292D32" stroke-width="1.5" stroke-linecap="round" stroke-linejoin="round"></path>
  </symbol>

  <symbol  xmlns="http://www.w3.org/2000/svg" viewBox="0 0 24 24" id="heart2">
    <path d="M12.62 20.81C12.28 20.93 11.72 20.93 11.38 20.81C8.48 19.82 2 15.69 2 8.69001C2 5.60001 4.49 3.10001 7.56 3.10001C9.38 3.10001 10.99 3.98001 12 5.34001C13.01 3.98001 14.63 3.10001 16.44 3.10001C19.51 3.10001 22 5.60001 22 8.69001C22 15.69 15.52 19.82 12.62 20.81Z" ></path>
  </symbol>
</svg>
